{"title":"Chuyen Tinh Chang Mat Hi","uid":6790684,"size":1803645134,"categoryP":"video","categoryS":"movies","magnet":"?xt=urn:btih:f4e7d8ba75ef2bbd0c4afd42cfdd0414a721438e&amp;dn=Chuyen+Tinh+Chang+Mat+Hi&amp;tr=udp%3A%2F%2Ftracker.openbittorrent.com%3A80&amp;tr=udp%3A%2F%2Fopen.demonii.com%3A1337&amp;tr=udp%3A%2F%2Ftracker.coppersurfer.tk%3A6969&amp;tr=udp%3A%2F%2Fexodus.desync.com%3A6969","seeders":0,"leechers":0,"uploader":"teaphuong","files":1,"time":1320251550,"description":"Format                                   : AVI\nFormat/Info                              : Audio Video Interleave\nFormat profile                           : OpenDML\nFile size                                : 1.68 GiB\nDuration                                 : 2h 26mn\nOverall bit rate                         : 1 642 Kbps\nWriting application                      : Lavf51.12.1\n\nVideo\nID                                       : 0\nFormat                                   : xvid\nCodec ID                                 : xvid\nDuration                                 : 2h 26mn\nBit rate                                 : 648 Kbps\nWidth                                    : 720 pixels\nHeight                                   : 480 pixels\nDisplay aspect ratio                     : 3:2\nFrame rate                               : 29.970 fps\nStandard                                 : NTSC\nBits/(Pixel*Frame)                       : 0.063\nStream size                              : 679 MiB (39%)\n\nAudio\nID                                       : 1\nFormat                                   : MPEG Audio\nCodec ID                                 : 55\nCodec ID/Hint                            : MP3\nDuration                                 : 2h 26mn\nBit rate                                 : 128 Kbps\nChannel(s)                               : 2 channels\nSampling rate                            : 44.1 KHz\nCompression mode                         : Lossy\nStream size                              : 335 KiB (0%)\nAlignment                                : Aligned on interleaves\nInterleave, duration                     : 4627 ms (138.68 video frames)\n","torrent":{"xt":"urn:btih:f4e7d8ba75ef2bbd0c4afd42cfdd0414a721438e","amp;dn":"Chuyen+Tinh+Chang+Mat+Hi","amp;tr":["udp%3A%2F%2Ftracker.openbittorrent.com%3A80","udp%3A%2F%2Fopen.demonii.com%3A1337","udp%3A%2F%2Ftracker.coppersurfer.tk%3A6969","udp%3A%2F%2Fexodus.desync.com%3A6969"],"infoHash":"f4e7d8ba75ef2bbd0c4afd42cfdd0414a721438e","infoHashBuffer":{"type":"Buffer","data":[244,231,216,186,117,239,43,189,12,74,253,66,207,221,4,20,167,33,67,142]},"announce":[],"urlList":[]}}